<svg width="712" height="584" viewBox="0 0 712 584" fill="none" xmlns="http://www.w3.org/2000/svg">
<path d="M253.333 258.333C290.152 258.333 320 228.486 320 191.667C320 154.848 290.152 125 253.333 125C216.514 125 186.667 154.848 186.667 191.667C186.667 228.486 216.514 258.333 253.333 258.333Z" stroke="url(#paint0_linear_155_5)" stroke-width="49.6"/>
<path d="M386.667 391.667C386.667 428.487 386.667 458.333 253.333 458.333C120 458.333 120 428.487 120 391.667C120 354.847 179.695 325 253.333 325C326.97 325 386.667 354.847 386.667 391.667Z" stroke="url(#paint1_linear_155_5)" stroke-width="49.6"/>
<path d="M20 291.667C20 165.959 20 103.105 59.0523 64.0523C98.105 25 160.959 25 286.667 25H420C545.707 25 608.563 25 647.613 64.0523C686.667 103.105 686.667 165.959 686.667 291.667C686.667 417.373 686.667 480.23 647.613 519.28C608.563 558.333 545.707 558.333 420 558.333H286.667C160.959 558.333 98.105 558.333 59.0523 519.28C20 480.23 20 417.373 20 291.667Z" stroke="url(#paint2_linear_155_5)" stroke-width="49.6"/>
<path d="M586.667 291.667H453.333" stroke="url(#paint3_linear_155_5)" stroke-width="49.6" stroke-linecap="round"/>
<path d="M586.667 191.667H420" stroke="url(#paint4_linear_155_5)" stroke-width="49.6" stroke-linecap="round"/>
<path opacity="0.9" d="M586.667 391.667H486.667" stroke="url(#paint5_linear_155_5)" stroke-width="49.6" stroke-linecap="round"/>
<defs>
<linearGradient id="paint0_linear_155_5" x1="70.3333" y1="67.1667" x2="650.833" y2="557.167" gradientUnits="userSpaceOnUse">
<stop stop-color="#007AFF"/>
<stop offset="1" stop-color="#8338EC"/>
</linearGradient>
<linearGradient id="paint1_linear_155_5" x1="57.3333" y1="77.1666" x2="614.333" y2="540.667" gradientUnits="userSpaceOnUse">
<stop stop-color="#007AFF"/>
<stop offset="1" stop-color="#8338EC"/>
</linearGradient>
<linearGradient id="paint2_linear_155_5" x1="50.3333" y1="60.1666" x2="604.333" y2="558.667" gradientUnits="userSpaceOnUse">
<stop stop-color="#3495FF"/>
<stop offset="1" stop-color="#8338EC"/>
</linearGradient>
<linearGradient id="paint3_linear_155_5" x1="63.8339" y1="90.1659" x2="654.334" y2="550.666" gradientUnits="userSpaceOnUse">
<stop stop-color="#007AFF"/>
<stop offset="1" stop-color="#8338EC"/>
</linearGradient>
<linearGradient id="paint4_linear_155_5" x1="70.3338" y1="67.1674" x2="630.834" y2="554.165" gradientUnits="userSpaceOnUse">
<stop stop-color="#007AFF"/>
<stop offset="1" stop-color="#8338EC"/>
</linearGradient>
<linearGradient id="paint5_linear_155_5" x1="57.3332" y1="70.1663" x2="604.333" y2="507.167" gradientUnits="userSpaceOnUse">
<stop stop-color="#007AFF"/>
<stop offset="1" stop-color="#8338EC"/>
</linearGradient>
</defs>
</svg>
